<?xml version="1.0" encoding="utf-8"?>
<!-- Generator: Adobe Illustrator 22.0.0, SVG Export Plug-In . SVG Version: 6.00 Build 0)  -->
<svg version="1.1" id="Layer_1" xmlns="http://www.w3.org/2000/svg" xmlns:xlink="http://www.w3.org/1999/xlink" x="0px" y="0px"
	 viewBox="0 0 64 64" style="enable-background:new 0 0 64 64;" xml:space="preserve">
<path d="M40,8c0-4.4-3.6-8-8-8s-8,3.6-8,8s3.6,8,8,8S40,12.4,40,8z M40,56c0-4.4-3.6-8-8-8s-8,3.6-8,8s3.6,8,8,8S40,60.4,40,56z
	 M40,32c0-4.4-3.6-8-8-8s-8,3.6-8,8s3.6,8,8,8S40,36.4,40,32z"/>
</svg>
