<?xml version="1.0" encoding="utf-8"?>
<!-- Generator: Adobe Illustrator 22.0.0, SVG Export Plug-In . SVG Version: 6.00 Build 0)  -->
<svg version="1.1" id="Layer_1" xmlns="http://www.w3.org/2000/svg" xmlns:xlink="http://www.w3.org/1999/xlink" x="0px" y="0px"
	 viewBox="0 0 64 64" style="enable-background:new 0 0 64 64;" xml:space="preserve">
<style type="text/css">
	.st0{opacity:0.1;fill:#231F20;}
	.st1{fill:#C90D1B;}
	.st2{fill:#ED1C24;}
	.st3{opacity:0.2;fill:#231F20;}
</style>
<g>
	<polygon class="st0" points="48.9,46 47.9,43.2 49.1,41 53.1,38.1 53.6,33.3 56.1,29 54.5,24.3 55,19.4 51.8,15.8 50.2,11.1 
		45.7,9.1 42.5,5.4 37.5,5.4 33.1,3.4 28.6,5.4 23.6,5.4 20.4,9.1 15.9,11.1 14.3,15.8 11.1,19.4 11.6,24.3 10,29 12.5,33.3 
		13,38.1 17,41 18.2,43.2 17.2,46 17.2,46 12.3,58.7 20.9,56.8 26.3,64 32.3,48.3 33.1,48.2 33.8,48.3 39.8,64 45.2,56.8 53.8,58.7 
		48.9,46 	"/>
	<polygon class="st1" points="26.3,60.6 20.9,53.3 12.3,55.2 25.7,20.2 39.7,25.6 	"/>
	<polygon class="st2" points="31.8,22.6 39.7,25.6 26.3,60.6 20.9,53.3 	"/>
	<polygon class="st3" points="25.7,20.2 17.2,42.6 18,43.9 23.3,45.1 27.7,48.3 31.3,47.5 39.7,25.6 	"/>
	<polygon class="st1" points="39.8,60.6 45.2,53.3 53.8,55.2 40.4,20.2 26.4,25.6 	"/>
	<polygon class="st2" points="45.2,53.3 53.8,55.2 40.4,20.2 33.5,22.9 	"/>
	<polygon class="st3" points="48.2,43.9 48.9,42.6 40.4,20.2 26.4,25.6 34.8,47.5 38.4,48.3 42.8,45.1 	"/>
	<polygon class="st2" points="33.1,0 37.5,2 42.5,2 45.7,5.7 50.2,7.7 51.8,12.3 55,16 54.5,20.9 56.1,25.5 53.6,29.8 53.1,34.7 
		49.1,37.6 46.6,41.8 41.8,42.9 37.9,45.8 33.1,44.7 28.2,45.8 24.3,42.9 19.5,41.8 17,37.6 13,34.7 12.5,29.8 10,25.5 11.6,20.9 
		11.1,16 14.3,12.3 15.9,7.7 20.4,5.7 23.6,2 28.6,2 	"/>
	<polygon class="st1" points="33.1,0.8 37.4,2.7 42.1,2.7 45.3,6.3 49.6,8.2 51.1,12.7 54.3,16.2 53.8,20.9 55.2,25.5 52.9,29.6 
		52.4,34.3 48.5,37.1 46.2,41.2 41.5,42.2 37.7,45 33.1,44 28.4,45 24.6,42.2 19.9,41.2 17.6,37.1 13.7,34.3 13.2,29.6 10.9,25.5 
		12.3,20.9 11.8,16.2 15,12.7 16.5,8.2 20.8,6.3 24,2.7 28.7,2.7 	"/>
	<ellipse transform="matrix(0.7071 -0.7071 0.7071 0.7071 -6.4963 30.0706)" class="st2" cx="33.1" cy="22.9" rx="18.8" ry="18.8"/>
	<ellipse transform="matrix(0.7071 -0.7071 0.7071 0.7071 -6.4963 30.0706)" class="st1" cx="33.1" cy="22.9" rx="17" ry="17"/>
	<ellipse transform="matrix(0.7071 -0.7071 0.7071 0.7071 -6.4963 30.0706)" class="st2" cx="33.1" cy="22.9" rx="15.9" ry="15.9"/>
</g>
</svg>
