<?xml version="1.0" encoding="utf-8"?>
<!-- Generator: Adobe Illustrator 22.0.0, SVG Export Plug-In . SVG Version: 6.00 Build 0)  -->
<svg version="1.1" id="Layer_1" xmlns="http://www.w3.org/2000/svg" xmlns:xlink="http://www.w3.org/1999/xlink" x="0px" y="0px"
	 viewBox="0 0 64 64" style="enable-background:new 0 0 64 64;" xml:space="preserve">
<style type="text/css">
	.st0{clip-path:url(#SVGID_2_);}
</style>
<g>
	<g>
		<defs>
			<rect id="SVGID_1_" x="1" width="62.7" height="64"/>
		</defs>
		<clipPath id="SVGID_2_">
			<use xlink:href="#SVGID_1_"  style="overflow:visible;"/>
		</clipPath>
		<path class="st0" d="M43.9,31.6h-7.7c-0.4-1.5-1.6-2.7-3.1-3.1V17.7c0-0.6-0.5-1.1-1.1-1.1c-0.6,0-1.1,0.5-1.1,1.1v10.9
			c-1.8,0.5-3.2,2.1-3.2,4.1c0,2.4,1.9,4.3,4.3,4.3c2,0,3.7-1.4,4.1-3.2h7.7c0.6,0,1.1-0.5,1.1-1.1C44.9,32.1,44.5,31.6,43.9,31.6
			L43.9,31.6z M32.1,34.8c-1.2,0-2.1-1-2.1-2.1c0-1.2,1-2.1,2.1-2.1c1.2,0,2.1,1,2.1,2.1C34.2,33.9,33.3,34.8,32.1,34.8L32.1,34.8z
			 M32.1,34.8"/>
		<path class="st0" d="M54.7,10.8l4.4,4.4c0.2,0.2,0.5,0.3,0.8,0.3c0.3,0,0.6-0.1,0.8-0.3c3.4-3.4,3.4-8.9,0-12.3
			c-3.4-3.4-8.9-3.4-12.3,0C48.1,3.1,48,3.4,48,3.7c0,0.3,0.1,0.6,0.3,0.8l4.9,4.9l-1.8,1.8c-5.1-4.6-11.9-7.4-19.3-7.4
			c-7.4,0-14.2,2.8-19.3,7.4L11,9.3l4.9-4.9c0.2-0.2,0.3-0.5,0.3-0.8c0-0.3-0.1-0.6-0.3-0.8c-3.4-3.4-8.9-3.4-12.3,0
			c-3.4,3.4-3.4,8.9,0,12.3c0.2,0.2,0.5,0.3,0.8,0.3c0.3,0,0.6-0.1,0.8-0.3l4.4-4.4l1.8,1.8c-5,5.2-8.1,12.3-8.1,20.1
			c0,10.6,5.7,19.9,14.3,24.9l-3.2,3.2c-0.4,0.4-0.4,1.1,0,1.5c0.2,0.2,0.5,0.3,0.8,0.3c0.3,0,0.5-0.1,0.8-0.3l3.7-3.7
			c3.8,1.9,8.1,2.9,12.7,2.9c4.6,0,8.9-1.1,12.7-2.9l3.7,3.7c0.2,0.2,0.5,0.3,0.8,0.3c0.3,0,0.5-0.1,0.8-0.3c0.4-0.4,0.4-1.1,0-1.5
			l-3.2-3.2c8.5-5,14.3-14.3,14.3-24.9c0-7.8-3.1-14.9-8.1-20.1L54.7,10.8z M59.1,4.4c2.3,2.3,2.5,5.9,0.7,8.5l-9.2-9.2
			C53.2,1.9,56.8,2.1,59.1,4.4L59.1,4.4z M4.4,12.9c-1.8-2.6-1.6-6.2,0.7-8.5c2.3-2.3,5.9-2.5,8.5-0.7L4.4,12.9z M32.1,59.5
			c-14.8,0-26.8-12-26.8-26.8c0-14.8,12-26.8,26.8-26.8c14.8,0,26.8,12,26.8,26.8C58.9,47.5,46.9,59.5,32.1,59.5L32.1,59.5z
			 M32.1,59.5"/>
	</g>
	<path d="M32.1,11.1c0.6,0,1.1-0.5,1.1-1.1V9c0-0.6-0.5-1.1-1.1-1.1C31.5,7.9,31,8.4,31,9v1.1C31,10.6,31.5,11.1,32.1,11.1
		L32.1,11.1z M32.1,11.1"/>
	<path d="M32.1,54c-0.6,0-1.1,0.5-1.1,1.1v1.1c0,0.6,0.5,1.1,1.1,1.1c0.6,0,1.1-0.5,1.1-1.1v-1.1C33.2,54.5,32.7,54,32.1,54L32.1,54
		z M32.1,54"/>
	<path d="M54.6,33.6h1.1c0.6,0,1.1-0.5,1.1-1.1c0-0.6-0.5-1.1-1.1-1.1h-1.1c-0.6,0-1.1,0.5-1.1,1.1C53.5,33.2,54,33.6,54.6,33.6
		L54.6,33.6z M54.6,33.6"/>
	<path d="M9.6,31.5H8.5c-0.6,0-1.1,0.5-1.1,1.1c0,0.6,0.5,1.1,1.1,1.1h1.1c0.6,0,1.1-0.5,1.1-1.1C10.6,32,10.2,31.5,9.6,31.5
		L9.6,31.5z M9.6,31.5"/>
	<path d="M48,15.1l-0.8,0.8c-0.4,0.4-0.4,1.1,0,1.5c0.2,0.2,0.5,0.3,0.8,0.3c0.3,0,0.5-0.1,0.8-0.3l0.8-0.8c0.4-0.4,0.4-1.1,0-1.5
		C49.1,14.7,48.4,14.7,48,15.1L48,15.1z M48,15.1"/>
	<path d="M15.4,47.7l-0.8,0.8c-0.4,0.4-0.4,1.1,0,1.5c0.2,0.2,0.5,0.3,0.8,0.3c0.3,0,0.5-0.1,0.8-0.3l0.8-0.8c0.4-0.4,0.4-1.1,0-1.5
		C16.5,47.3,15.8,47.3,15.4,47.7L15.4,47.7z M15.4,47.7"/>
	<path d="M48.8,47.7c-0.4-0.4-1.1-0.4-1.5,0c-0.4,0.4-0.4,1.1,0,1.5L48,50c0.2,0.2,0.5,0.3,0.8,0.3c0.3,0,0.5-0.1,0.8-0.3
		c0.4-0.4,0.4-1.1,0-1.5L48.8,47.7z M48.8,47.7"/>
	<path d="M16.2,15.1c-0.4-0.4-1.1-0.4-1.5,0c-0.4,0.4-0.4,1.1,0,1.5l0.8,0.8c0.2,0.2,0.5,0.3,0.8,0.3c0.3,0,0.6-0.1,0.8-0.3
		c0.4-0.4,0.4-1.1,0-1.5L16.2,15.1z M16.2,15.1"/>
</g>
</svg>
