<?xml version="1.0" encoding="utf-8"?>
<!-- Generator: Adobe Illustrator 22.0.0, SVG Export Plug-In . SVG Version: 6.00 Build 0)  -->
<svg version="1.1" id="Layer_1" xmlns="http://www.w3.org/2000/svg" xmlns:xlink="http://www.w3.org/1999/xlink" x="0px" y="0px"
	 viewBox="0 0 64 64" style="enable-background:new 0 0 64 64;" xml:space="preserve">
<g>
	<circle cx="32" cy="46.5" r="5.4"/>
	<path d="M32,0C14.3,0,0,14.3,0,32c0,17.7,14.3,32,32,32s32-14.3,32-32C64,14.3,49.7,0,32,0z M32,57.8C17.7,57.8,6.2,46.3,6.2,32
		C6.2,17.7,17.7,6.2,32,6.2c14.3,0,25.8,11.5,25.8,25.8C57.8,46.3,46.3,57.8,32,57.8z"/>
	<path d="M32.7,13.4c-6,0-9.9,2.5-13,7c-0.5,0.7-0.3,1.6,0.3,2.1l3.6,2.7c0.7,0.5,1.6,0.4,2.2-0.3c1.9-2.5,3.3-3.9,6.3-3.9
		c2.3,0,5.1,1.5,5.1,3.7c0,1.7-1.4,2.5-3.7,3.8c-2.6,1.5-6.1,3.3-6.1,7.9v1.1c0,0.9,0.7,1.5,1.5,1.5h5.9c0.9,0,1.5-0.7,1.5-1.5v-0.8
		c0-3.2,9.3-3.3,9.3-12C45.8,18.4,39.1,13.4,32.7,13.4z"/>
</g>
</svg>
