<?xml version="1.0" encoding="utf-8"?>
<!-- Generator: Adobe Illustrator 22.0.0, SVG Export Plug-In . SVG Version: 6.00 Build 0)  -->
<svg version="1.1" id="Layer_1" xmlns="http://www.w3.org/2000/svg" xmlns:xlink="http://www.w3.org/1999/xlink" x="0px" y="0px"
	 viewBox="0 0 64 64" style="enable-background:new 0 0 64 64;" xml:space="preserve">
<g>
	<g>
		<path d="M5.3,34.5H3.2C1.4,34.5,0,33,0,31.3s1.4-3.2,3.2-3.2h2.1c1.8,0,3.2,1.4,3.2,3.2S7.1,34.5,5.3,34.5z"/>
	</g>
	<g>
		<g>
			<path d="M60.8,17.4H3.2C1.4,17.4,0,16,0,14.2S1.4,11,3.2,11h57.6c1.8,0,3.2,1.4,3.2,3.2S62.6,17.4,60.8,17.4z"/>
		</g>
		<g>
			<path d="M60.8,51.6H3.2c-1.8,0-3.2-1.4-3.2-3.2s1.4-3.2,3.2-3.2h57.6c1.8,0,3.2,1.4,3.2,3.2S62.6,51.6,60.8,51.6z"/>
		</g>
		<g>
			<path d="M60.8,34.5H16c-1.8,0-3.2-1.4-3.2-3.2s1.4-3.2,3.2-3.2h44.8c1.8,0,3.2,1.4,3.2,3.2S62.6,34.5,60.8,34.5z"/>
		</g>
	</g>
</g>
</svg>
