<?xml version="1.0" encoding="utf-8"?>
<!-- Generator: Adobe Illustrator 22.0.0, SVG Export Plug-In . SVG Version: 6.00 Build 0)  -->
<svg version="1.1" id="Layer_1" xmlns="http://www.w3.org/2000/svg" xmlns:xlink="http://www.w3.org/1999/xlink" x="0px" y="0px"
	 viewBox="0 0 64 64" style="enable-background:new 0 0 64 64;" xml:space="preserve">
<path d="M31.2,18.9L10.7,35.8V54c0,1,0.8,1.8,1.8,1.8l12.5,0c1,0,1.8-0.8,1.8-1.8V43.3c0-1,0.8-1.8,1.8-1.8h7.1c1,0,1.8,0.8,1.8,1.8
	V54c0,1,0.8,1.8,1.8,1.8c0,0,0,0,0,0l12.4,0c1,0,1.8-0.8,1.8-1.8V35.8L32.9,18.9C32.4,18.5,31.6,18.5,31.2,18.9L31.2,18.9z
	 M63.5,30.4l-9.3-7.7V7.3c0-0.7-0.6-1.3-1.3-1.3h-6.2c-0.7,0-1.3,0.6-1.3,1.3v8.1l-9.9-8.2c-2-1.6-4.8-1.6-6.8,0L0.5,30.4
	c-0.6,0.5-0.6,1.3-0.2,1.9c0,0,0,0,0,0l2.8,3.4c0.5,0.6,1.3,0.7,1.9,0.2c0,0,0,0,0,0l26.1-21.5c0.5-0.4,1.2-0.4,1.7,0L59,35.9
	c0.6,0.5,1.4,0.4,1.9-0.2c0,0,0,0,0,0l2.8-3.4C64.2,31.7,64.1,30.9,63.5,30.4C63.5,30.4,63.5,30.4,63.5,30.4L63.5,30.4z"/>
</svg>
