<?xml version="1.0" encoding="utf-8"?>
<!-- Generator: Adobe Illustrator 22.0.0, SVG Export Plug-In . SVG Version: 6.00 Build 0)  -->
<svg version="1.1" id="Layer_1" xmlns="http://www.w3.org/2000/svg" xmlns:xlink="http://www.w3.org/1999/xlink" x="0px" y="0px"
	 viewBox="0 0 64 64" style="enable-background:new 0 0 64 64;" xml:space="preserve">
<style type="text/css">
	.st0{fill:#1A2A5B;}
</style>
<g>
	<g>
		<path class="st0" d="M1.5,53.3c0,0-1.7,0.3-1.5,1.3s1.2,2.6,2,3.3c0.8,0.8,2.3,1.8,2.9,2.1c0.6,0.3,1,0.1,1.3-0.3
			c0.2-0.4,0.5-1.3,0.9-1.4c0.5-0.2,4.7-4.1,6.1-5.5c1.4-1.4,5.4-5.3,6.5-6.5c1.1-1.2,3.8-4.1,4.3-5.1c0.4-0.8,1.1-1.7,1.3-2.6
			c0.1-0.2,0.1-0.6,0-0.8c0,0-2.6-2.8-2.7-2.9c-0.1-0.1-0.8-0.5-1.8,0c-0.9,0.5-4,2.5-6,4.4c-2,1.9-5.3,5.5-6,6.2
			c-0.7,0.7-5.3,5.5-6,6.3S1.5,53.3,1.5,53.3z"/>
		<path class="st0" d="M23.4,33.9c0,0-0.5,0.4-0.2,0.7c0.3,0.3,2.2,2.1,2.3,2.2c0.1,0.1,0.4,0.3,0.8-0.2c0.4-0.4,7.5-7.7,7.7-7.8
			c0.2-0.2,0.3-0.4-0.1-0.8c-0.4-0.4-1.8-1.9-2-2s-0.4-0.2-0.8,0.2C30.7,26.6,23.4,33.9,23.4,33.9z"/>
		<path class="st0" d="M27.9,21.7c0,0,3.3,1.4,4.8,3c1.6,1.6,4.6,4.3,6,7.6c0.2,0.3,0.6-0.2,1.3-0.9s6.2-6.2,6.8-6.8
			c0.7-0.6,2.1-2.2,2.3-2.3c0.1-0.1-0.1-0.2-0.4-0.4s-4.2-2.3-6.5-5.2s-3.1-4-3.8-5.5c0,0-0.3,0.1-0.6,0.5
			C37.4,12.2,27.9,21.7,27.9,21.7z"/>
		<path class="st0" d="M30.2,3.8c0,0,1.9-1.4,3.8-0.5s2.6,2,3,2.8s0.5,1.5,0.4,2.1c-0.1,0.6-0.2,1.5-1.3,2.6s-9.2,9.3-9.6,9.5
			s-1.8,0.9-3.4,0.3C21.6,20,20.1,18,19.8,17c-0.3-1-0.5-2.4,0.4-3.3S30.2,3.8,30.2,3.8z"/>
		<path class="st0" d="M50.3,23.8c0,0,1.9-1.4,3.8-0.5s2.6,2,3,2.8c0.4,0.8,0.5,1.5,0.4,2.1c-0.1,0.6-0.2,1.5-1.3,2.6
			s-9.2,9.3-9.6,9.5c-0.3,0.2-1.8,0.9-3.4,0.3c-1.5-0.6-3.1-2.6-3.3-3.6c-0.3-1-0.5-2.4,0.4-3.3C41.1,32.8,50.3,23.8,50.3,23.8z"/>
		<rect x="32.5" y="43.5" class="st0" width="26" height="6.2"/>
		<rect x="27" y="51.4" class="st0" width="37" height="8.6"/>
	</g>
</g>
</svg>
