<?xml version="1.0" encoding="utf-8"?>
<!-- Generator: Adobe Illustrator 22.0.0, SVG Export Plug-In . SVG Version: 6.00 Build 0)  -->
<svg version="1.1" id="Layer_1" xmlns="http://www.w3.org/2000/svg" xmlns:xlink="http://www.w3.org/1999/xlink" x="0px" y="0px"
	 viewBox="0 0 64 64" style="enable-background:new 0 0 64 64;" xml:space="preserve">
<path d="M58.7,36.5l5.3-23.1c0.4-1.7-0.9-3.3-2.6-3.3H17.7l-1-5C16.4,3.9,15.3,3,14.1,3H2.7C1.2,3,0,4.2,0,5.7v1.8
	c0,1.5,1.2,2.7,2.7,2.7h7.8l7.8,38.2c-1.9,1.1-3.1,3.1-3.1,5.4c0,3.4,2.8,6.2,6.2,6.2c3.4,0,6.2-2.8,6.2-6.2c0-1.7-0.7-3.3-1.9-4.4
	H49c-1.2,1.1-1.9,2.7-1.9,4.4c0,3.4,2.8,6.2,6.2,6.2c3.4,0,6.2-2.8,6.2-6.2c0-2.5-1.4-4.6-3.5-5.6l0.6-2.7c0.4-1.7-0.9-3.3-2.6-3.3
	H24.2l-0.7-3.6h32.6C57.3,38.6,58.4,37.7,58.7,36.5z"/>
</svg>
