<?xml version="1.0" encoding="utf-8"?>
<!-- Generator: Adobe Illustrator 22.0.0, SVG Export Plug-In . SVG Version: 6.00 Build 0)  -->
<svg version="1.1" id="Layer_1" xmlns="http://www.w3.org/2000/svg" xmlns:xlink="http://www.w3.org/1999/xlink" x="0px" y="0px"
	 viewBox="0 0 64 64" style="enable-background:new 0 0 64 64;" xml:space="preserve">
<style type="text/css">
	.st0{fill:none;}
	.st1{fill:#8B8F91;}
	.st2{fill:#FFFFFF;}
</style>
<g>
	<path class="st0" d="M0,2v59.7h64V2H0z M63.3,26.6C62,32.2,59,37.3,54.5,41.4l-1,0.9l0,0l0,0L31.8,61.6L9.5,41.4
		c-3.2-2.9-5.7-6.4-7.4-10.3l0,0l0,0c-0.6-1.4-1.1-2.9-1.5-4.4c-0.9-3.9-0.6-6.3-0.5-6.7C1,9.5,8.3,2.1,17.4,2.1
		c6,0,11.3,3.2,14.4,8.5c3.1-5.2,8.7-8.5,14.7-8.5c4.3,0,8.2,1.7,11.3,4.6l0,0l0,0c3.3,3.2,5.5,7.8,6,13.1
		C64,20.3,64.3,22.7,63.3,26.6z"/>
	<polygon class="st1" points="53.4,42.3 53.4,42.3 53.4,42.3 	"/>
	<path class="st1" d="M57.9,6.7L57.9,6.7C57.8,6.7,57.9,6.7,57.9,6.7L57.9,6.7z"/>
	<path class="st1" d="M2.1,31.1L2.1,31.1C2.1,31.1,2.1,31,2.1,31.1L2.1,31.1z"/>
	<path class="st2" d="M26.1,54.8L6.5,36.5l-4.4-5.4c1.6,3.8,4.1,7.3,7.4,10.3l22.3,20.2l21.6-19.3L32,60L26.1,54.8z"/>
	<path class="st2" d="M3.3,13.6l4.6-6.5L15,3.2l7.8,1.3L30,9.7l2,3.9l5.9-8.5l9.1-2l10.8,3.5c-3-2.9-6.9-4.6-11.3-4.6
		c-6.1,0-11.6,3.3-14.7,8.5c-3.1-5.3-8.4-8.5-14.4-8.5C8.3,2.1,1,9.5,0.1,19.8c-0.1,0.5-0.4,2.8,0.5,6.7c0.4,1.5,0.9,3,1.5,4.4
		l-1.5-9.6L3.3,13.6z"/>
	<path class="st2" d="M57.9,6.7L62,18.8V28l-8.6,14.3l1-0.9c4.5-4.1,7.5-9.2,8.9-14.8c0.9-3.9,0.6-6.3,0.5-6.7
		C63.4,14.5,61.2,9.9,57.9,6.7z"/>
	<path class="st2" d="M62,18.8L57.9,6.7c0,0,0,0,0,0L47,3.2l-9.1,2L32,13.6l-2-3.9l-7.2-5.2L15,3.2L7.8,7.1l-4.6,6.5l-2.6,7.8
		L2.1,31c0,0,0,0.1,0,0.1l4.4,5.4l19.6,18.3L32,60l21.4-17.7l0,0L62,28V18.8z M61,26c-1.2,5.1-4,9.8-8.1,13.5l-21,18.8L11.2,39.5
		C7.1,35.8,4.3,31.1,3,26c-0.9-3.7-0.5-5.8-0.5-5.8l0-0.1c0.8-9,7.1-15.5,14.9-15.5c5.8,0,10.8,3.5,13.3,9.2l1.1,2.7l1.1-2.7
		c2.4-5.6,7.7-9.2,13.6-9.2c7.8,0,14.1,6.5,14.9,15.7C61.5,20.2,61.8,22.3,61,26z"/>
	<path class="st1" d="M46.6,4.5c-5.9,0-11.3,3.6-13.6,9.2l-1.1,2.7l-1.1-2.7c-2.4-5.7-7.5-9.2-13.3-9.2c-7.8,0-14.1,6.5-14.9,15.5
		l0,0.1c0,0-0.4,2.1,0.5,5.8c1.2,5.1,4,9.8,8.1,13.5l20.7,18.7l21-18.8c4.1-3.7,6.9-8.4,8.1-13.5c0.9-3.7,0.5-5.8,0.5-5.8
		C60.6,11.1,54.4,4.5,46.6,4.5z M19.7,12c-5.4,0-9.8,4.4-9.8,9.8c0,0.7-0.6,1.2-1.2,1.2c-0.7,0-1.2-0.6-1.2-1.2
		c0-6.8,5.5-12.3,12.3-12.3c0.7,0,1.2,0.6,1.2,1.2C20.9,11.5,20.4,12,19.7,12z"/>
	<path class="st2" d="M19.7,9.6c-6.8,0-12.3,5.5-12.3,12.3c0,0.7,0.5,1.2,1.2,1.2c0.7,0,1.2-0.6,1.2-1.2c0-5.4,4.4-9.8,9.8-9.8
		c0.7,0,1.2-0.6,1.2-1.2C20.9,10.1,20.4,9.6,19.7,9.6z"/>
</g>
</svg>
