<?xml version="1.0" encoding="utf-8"?>
<!-- Generator: Adobe Illustrator 22.0.0, SVG Export Plug-In . SVG Version: 6.00 Build 0)  -->
<svg version="1.1" id="Layer_1" xmlns="http://www.w3.org/2000/svg" xmlns:xlink="http://www.w3.org/1999/xlink" x="0px" y="0px"
	 viewBox="0 0 64 64" style="enable-background:new 0 0 64 64;" xml:space="preserve">
<path d="M32,18.9c-1.2,0-2.3,0.2-3.5,0.6c0.5,0.9,0.8,1.9,0.8,3c0,3.4-2.8,6.2-6.2,6.2c-1.1,0-2.1-0.3-3-0.8
	c-1.9,6.6,1.9,13.5,8.5,15.4c6.6,1.9,13.5-1.9,15.4-8.5c1.9-6.6-1.9-13.5-8.5-15.4C34.3,19,33.2,18.9,32,18.9z M63.6,29.7
	C57.6,18,45.7,10,32,10S6.4,18,0.4,29.7c-0.5,1-0.5,2.2,0,3.2c6,11.8,18,19.7,31.6,19.7s25.6-8,31.6-19.7
	C64.1,31.9,64.1,30.7,63.6,29.7z M32,47.3c-11,0-21-6.1-26.4-16c5.4-9.9,15.5-16,26.4-16s21,6.1,26.4,16C53,41.2,43,47.3,32,47.3z"
	/>
</svg>
