<?xml version="1.0" encoding="utf-8"?>
<!-- Generator: Adobe Illustrator 22.0.0, SVG Export Plug-In . SVG Version: 6.00 Build 0)  -->
<svg version="1.1" id="Layer_1" xmlns="http://www.w3.org/2000/svg" xmlns:xlink="http://www.w3.org/1999/xlink" x="0px" y="0px"
	 viewBox="0 0 64 64" style="enable-background:new 0 0 64 64;" xml:space="preserve">
<path d="M57.1,0H6.9C3.1,0,0,3.1,0,6.9v50.3C0,60.9,3.1,64,6.9,64h50.3c3.8,0,6.9-3.1,6.9-6.9V6.9C64,3.1,60.9,0,57.1,0z M52,22.6
	L27.4,47.1c-0.7,0.7-1.8,0.7-2.4,0L12,34c-0.7-0.7-0.7-1.8,0-2.4l3.2-3.2c0.7-0.7,1.8-0.7,2.4,0l8.5,8.6l20.2-20
	c0.7-0.7,1.8-0.7,2.4,0l3.2,3.2C52.7,20.9,52.7,21.9,52,22.6z"/>
</svg>
