<?xml version="1.0" encoding="utf-8"?>
<!-- Generator: Adobe Illustrator 22.0.0, SVG Export Plug-In . SVG Version: 6.00 Build 0)  -->
<svg version="1.1" id="Layer_1" xmlns="http://www.w3.org/2000/svg" xmlns:xlink="http://www.w3.org/1999/xlink" x="0px" y="0px"
	 viewBox="0 0 64 64" style="enable-background:new 0 0 64 64;" xml:space="preserve">
<g>
	<path d="M25.2,62.6c-0.8,0-1.5-0.7-1.5-1.5V39.4L0.4,16.1C0.2,15.9,0,15.5,0,15.1V4.5C0,3.7,0.7,3,1.5,3h61C63.3,3,64,3.7,64,4.5
		v11.1c0,0.4-0.2,0.8-0.5,1.1L39.8,39.4v21.5c0,0.8-0.7,1.5-1.5,1.5s-1.5-0.7-1.5-1.5V38.8c0-0.4,0.2-0.8,0.5-1.1L61,14.9V6H3v8.5
		l23.3,23.3c0.3,0.3,0.4,0.7,0.4,1.1v22.3C26.7,61.9,26,62.6,25.2,62.6z"/>
</g>
</svg>
