<?xml version="1.0" encoding="utf-8"?>
<!-- Generator: Adobe Illustrator 22.0.0, SVG Export Plug-In . SVG Version: 6.00 Build 0)  -->
<svg version="1.1" id="Layer_1" xmlns="http://www.w3.org/2000/svg" xmlns:xlink="http://www.w3.org/1999/xlink" x="0px" y="0px"
	 viewBox="0 0 64 64" style="enable-background:new 0 0 64 64;" xml:space="preserve">
<path d="M44.7,12.2l10,10c0.4,0.4,0.4,1.1,0,1.5L30.5,48.1l-10.3,1.1c-1.4,0.2-2.5-1-2.4-2.4l1.1-10.3l24.3-24.3
	C43.6,11.8,44.3,11.8,44.7,12.2L44.7,12.2z M62.7,9.7l-5.4-5.4c-1.7-1.7-4.4-1.7-6.1,0l-3.9,3.9c-0.4,0.4-0.4,1.1,0,1.5l10,10
	c0.4,0.4,1.1,0.4,1.5,0l3.9-3.9C64.4,14.1,64.4,11.4,62.7,9.7z M42.7,41.5v11.3H7.1V17.2h25.5c0.4,0,0.7-0.1,0.9-0.4l4.4-4.4
	c0.8-0.8,0.2-2.3-0.9-2.3H5.3c-2.9,0-5.3,2.4-5.3,5.3v39.1c0,2.9,2.4,5.3,5.3,5.3h39.1c2.9,0,5.3-2.4,5.3-5.3V37
	c0-1.2-1.4-1.8-2.3-0.9l-4.4,4.4C42.8,40.8,42.7,41.1,42.7,41.5z"/>
</svg>
