<?xml version="1.0" encoding="utf-8"?>
<!-- Generator: Adobe Illustrator 22.0.0, SVG Export Plug-In . SVG Version: 6.00 Build 0)  -->
<svg version="1.1" id="Layer_1" xmlns="http://www.w3.org/2000/svg" xmlns:xlink="http://www.w3.org/1999/xlink" x="0px" y="0px"
	 viewBox="0 0 64 64" style="enable-background:new 0 0 64 64;" xml:space="preserve">
<style type="text/css">
	.st0{fill:#053484;}
</style>
<g>
	<path class="st0" d="M62.6,7c-0.4,0-6.7,0-6.7,0s-1,0-1.3,1.1c-0.3,1.1-2.9,8.5-2.9,8.5H1.8c0,0-2.2,0.1-1.7,1.7
		c0.5,1.6,6.5,19.6,6.7,20c0.2,0.4,0.4,0.5,2,0.5c1.6,0,35.3,0,35.3,0l-2.1,6.5H10.4c0,0-2.1,0-4.1,2.5c-2,2.4-1.8,6,0.3,8.3
		c2.1,2.3,5.9,2.3,7.7,1.3c1.8-1.1,3.3-3,3.4-5.3s-1.1-3.6-1.1-3.6h2.8h18.3c0,0-1.3,1.7-1,3.8c0.3,2.1,1.5,4.5,4.4,5.6
		c2.9,1.1,6-0.7,6.9-1.9c0.9-1.2,2-3.6,1.3-6c-0.7-2.5-3-3.8-4.1-4.2c0.3-0.7,11.8-35.6,11.8-35.6l5.5,0c0.2,0,1.4-0.4,1.4-1.7
		S62.9,7,62.6,7z M11.4,55.1c-1.7,0-3.1-1.4-3.1-3.1c0-1.7,1.4-3.1,3.1-3.1s3.1,1.4,3.1,3.1C14.5,53.7,13.1,55.1,11.4,55.1z
		 M6.1,26.2l-2.2-6.5h12.4l1.1,6.5H6.1z M9.1,35.7l-2.1-6.4h10.8l1.2,6.4H9.1z M32.3,35.7H22.2l-1.1-6.4h12.5L32.3,35.7z M33.6,26.2
		H20.1L19,19.7h15.7L33.6,26.2z M46.5,52c0,1.7-1.4,3.1-3.1,3.1c-1.7,0-3.1-1.4-3.1-3.1c0-1.7,1.4-3.1,3.1-3.1
		C45.1,48.9,46.5,50.3,46.5,52z M45.3,35.8h-9.9l1.2-6.4h10.9L45.3,35.8z M48.4,26.2H36.8l1.1-6.6h12.6L48.4,26.2z"/>
</g>
</svg>
