<?xml version="1.0" encoding="utf-8"?>
<!-- Generator: Adobe Illustrator 22.0.0, SVG Export Plug-In . SVG Version: 6.00 Build 0)  -->
<svg version="1.1" id="Layer_1" xmlns="http://www.w3.org/2000/svg" xmlns:xlink="http://www.w3.org/1999/xlink" x="0px" y="0px"
	 viewBox="0 0 64 64" style="enable-background:new 0 0 64 64;" xml:space="preserve">
<g>
	<path d="M15.2,33.5h3.1v3.1h3v3H6.1v-3h3v-6.1h6.1L15.2,33.5L15.2,33.5z M54.9,61h3v-3h-3V61z M18.3,33.5h3v-3h-3V33.5z M60.9,61
		H64v-3h-3.1V61z M24.4,64h6.1v-3h-6.1L24.4,64z M51.8,64v-3h-3.1v3H51.8z M39.6,64h3v-6.1h-3V64z M15.2,24.4v3h9.1v-3H15.2z
		 M12.2,27.4v-3H6.1v6.1h3v-3C9.1,27.4,12.2,27.4,12.2,27.4z M21.3,21.3H0V0h21.3V21.3z M18.3,3.1H3v15.2h15.2V3.1z M6.1,57.9h9.1
		v-9.1H6.1V57.9z M36.6,54.9v3.1h3.1v-3.1H36.6z M15.2,6.1H6.1v9.1h9.1L15.2,6.1z M64,0v21.3H42.7V0H64z M60.9,3.1H45.7v15.2h15.2
		C60.9,18.3,60.9,3.1,60.9,3.1z M0,42.7h21.3V64H0V42.7z M3.1,61h15.2V45.7H3.1V61z M3.1,24.4H0v15.2h3.1V24.4z M42.7,39.6v3h3v-3
		H42.7z M33.5,51.8v-3h-3v3.1h-6.1v6.1h6.1v3h3v-6.1h3.1v-3L33.5,51.8L33.5,51.8z M24.4,12.2h6.1V9.1h-6.1L24.4,12.2z M48.8,36.6
		h6.1v3h3v-9.1h-3v-6.1h-3.1v9.1h-9.1v3.1h3v3h3L48.8,36.6L48.8,36.6L48.8,36.6z M51.8,45.7h-3.1v-3.1h-3v6.1h-9.1v3.1h6.1v6.1h3v3
		h3v-6.1H61v-3h-9.1L51.8,45.7L51.8,45.7z M51.8,45.7h3.1v-6.1h-3.1V45.7z M27.4,45.7v-3.1h3v-3h3v-3h3.1v-6.1h9.1v-6.1h-3v3h-3
		V15.2h-3V9.1h3V0h-3v6.1h-3V0h-9.1v6.1h3V3h3v6.1h3v9.1h3v3h-3v6.1h-3v-6.1h-3v-3h-3v6.1h3v3h-3v9.1h3v-6.1h3v6.1h-3v3h-3v9.1h6.1
		v-3H27.4z M60.9,48.8v-3h-6.1v3H60.9z M57.9,6.1h-9.1v9.1h9.1V6.1z M33.5,45.7h6.1v-3.1h-3.1v-3h-3.1L33.5,45.7L33.5,45.7z
		 M39.6,39.6v-3h-3.1v3H39.6z M57.9,27.4H64v-3h-6.1V27.4z M60.9,51.8H64v-3h-3.1V51.8z M60.9,33.5H64v-3h-3.1V33.5z M33.5,18.3h-3
		v3h3V18.3z"/>
</g>
</svg>
