<?xml version="1.0" encoding="utf-8"?>
<!-- Generator: Adobe Illustrator 22.0.0, SVG Export Plug-In . SVG Version: 6.00 Build 0)  -->
<svg version="1.1" id="Layer_1" xmlns="http://www.w3.org/2000/svg" xmlns:xlink="http://www.w3.org/1999/xlink" x="0px" y="0px"
	 viewBox="0 0 64 64" style="enable-background:new 0 0 64 64;" xml:space="preserve">
<style type="text/css">
	.st0{fill:#999999;}
</style>
<path class="st0" d="M20.7,32.1c0,1.4-1.1,2.4-2.4,2.4c-1,0-1.8-0.6-1.8-1.7c0-1.4,1.1-2.4,2.4-2.4C19.9,30.4,20.7,31,20.7,32.1z
	 M8.9,26.7H8.4c-0.2,0-0.3,0.1-0.4,0.3l-0.5,3h0.9c1.2,0,2.2-0.2,2.4-1.6C11.1,26.9,10.2,26.7,8.9,26.7z M40.5,26.7H40
	c-0.2,0-0.3,0.1-0.4,0.3l-0.5,3H40c1.4,0,2.4-0.3,2.4-2C42.5,26.8,41.4,26.7,40.5,26.7L40.5,26.7z M64,12.3v39.1
	c0,2.9-2.4,5.3-5.3,5.3H5.3c-2.9,0-5.3-2.4-5.3-5.3V12.3C0,9.4,2.4,7,5.3,7h53.3C61.6,7,64,9.4,64,12.3z M14.3,27.4
	c0-2.3-1.8-3.1-3.9-3.1H6c-0.3,0-0.6,0.2-0.6,0.5L3.6,36.1c0,0.2,0.1,0.4,0.4,0.4h2c0.3,0,0.6-0.3,0.6-0.6l0.5-3
	c0.1-0.8,1.5-0.5,2-0.5C12.3,32.5,14.3,30.6,14.3,27.4L14.3,27.4z M23.6,28.4h-2.1c-0.4,0-0.4,0.6-0.5,0.9c-0.6-0.9-1.6-1.1-2.6-1.1
	c-2.7,0-4.8,2.4-4.8,5c0,2.2,1.4,3.6,3.5,3.6c1,0,2.2-0.5,2.9-1.3c0,0.1,0,0.5,0,0.6c0,0.3,0.1,0.4,0.4,0.4h1.9
	c0.3,0,0.6-0.3,0.6-0.6l1.1-7.1C24,28.6,23.8,28.4,23.6,28.4L23.6,28.4z M28.1,39.2l7.1-10.3c0.1-0.1,0.1-0.1,0.1-0.2
	c0-0.2-0.2-0.4-0.4-0.4h-2.1c-0.2,0-0.4,0.1-0.5,0.3l-3,4.4l-1.2-4.2c-0.1-0.2-0.3-0.4-0.6-0.4h-2.1c-0.2,0-0.4,0.2-0.4,0.4
	c0,0.1,2.2,6.3,2.4,6.9c-0.3,0.4-2.3,3.2-2.3,3.5c0,0.2,0.2,0.4,0.4,0.4h2.1C27.8,39.5,28,39.4,28.1,39.2L28.1,39.2z M45.8,27.4
	c0-2.3-1.8-3.1-3.9-3.1h-4.4c-0.3,0-0.6,0.2-0.6,0.5l-1.8,11.3c0,0.2,0.1,0.4,0.4,0.4h2.3c0.2,0,0.4-0.2,0.4-0.4l0.5-3.2
	c0.1-0.8,1.5-0.5,2-0.5C43.9,32.5,45.8,30.6,45.8,27.4L45.8,27.4z M55.2,28.4h-2.1c-0.4,0-0.4,0.6-0.5,0.9C52,28.4,51,28.2,50,28.2
	c-2.7,0-4.8,2.4-4.8,5c0,2.2,1.4,3.6,3.5,3.6c1,0,2.3-0.5,2.9-1.3c0,0.2-0.1,0.5-0.1,0.7c0,0.3,0.1,0.4,0.4,0.4h1.9
	c0.3,0,0.6-0.3,0.6-0.6l1.1-7.1C55.6,28.6,55.4,28.4,55.2,28.4L55.2,28.4z M60.4,24.7c0-0.2-0.2-0.4-0.4-0.4h-2
	c-0.2,0-0.3,0.1-0.4,0.3l-1.8,11.6v0.1c0,0.2,0.2,0.4,0.4,0.4H58c0.3,0,0.6-0.3,0.6-0.6L60.4,24.7L60.4,24.7L60.4,24.7z M50.4,30.4
	c-1.4,0-2.4,1.1-2.4,2.4c0,1.1,0.8,1.7,1.8,1.7c1.3,0,2.4-1,2.4-2.4C52.3,31,51.5,30.4,50.4,30.4z"/>
</svg>
