<?xml version="1.0" encoding="utf-8"?>
<!-- Generator: Adobe Illustrator 22.0.0, SVG Export Plug-In . SVG Version: 6.00 Build 0)  -->
<svg version="1.1" id="Layer_1" xmlns="http://www.w3.org/2000/svg" xmlns:xlink="http://www.w3.org/1999/xlink" x="0px" y="0px"
	 viewBox="0 0 64 64" style="enable-background:new 0 0 64 64;" xml:space="preserve">
<style type="text/css">
	.st0{fill:#999999;}
</style>
<path class="st0" d="M52.2,28.1c0,0,0.8,4.1,1,5h-3.7c0.4-1,1.8-4.8,1.8-4.8s0.4-1,0.6-1.7L52.2,28.1L52.2,28.1z M64,11.3v39.1
	c0,2.9-2.4,5.3-5.3,5.3H5.3c-2.9,0-5.3-2.4-5.3-5.3V11.3C0,8.4,2.4,6,5.3,6h53.3C61.6,6,64,8.4,64,11.3z M16.9,39.2L24,22h-4.7
	l-4.4,11.8l-0.5-2.4l-1.6-7.9c-0.3-1.1-1-1.4-2-1.5H3.6l-0.1,0.3c1.8,0.4,3.3,1.1,4.7,1.9l4,15C12.2,39.2,16.9,39.2,16.9,39.2z
	 M27.4,39.3L30.2,22h-4.5L23,39.3H27.4L27.4,39.3z M43,33.6c0-2-1.2-3.5-3.7-4.7c-1.6-0.8-2.5-1.3-2.5-2.1c0-0.7,0.8-1.5,2.6-1.5
	c1.5,0,2.5,0.3,3.3,0.7l0.4,0.2l0.6-3.7c-0.9-0.3-2.3-0.7-4-0.7c-4.4,0-7.5,2.4-7.5,5.7c0,2.5,2.2,3.9,3.9,4.7
	c1.7,0.8,2.3,1.4,2.3,2.1c0,1.2-1.4,1.7-2.7,1.7c-1.8,0-2.7-0.3-4.2-0.9l-0.6-0.3l-0.6,3.9c1,0.5,3,0.9,5,0.9
	C39.9,39.5,42.9,37.2,43,33.6L43,33.6z M58.7,39.3L55.1,22h-3.5c-1.1,0-1.9,0.3-2.3,1.4l-6.6,15.8h4.7c0,0,0.8-2.1,0.9-2.6H54
	c0.1,0.6,0.5,2.6,0.5,2.6L58.7,39.3L58.7,39.3z"/>
</svg>
