<?xml version="1.0" encoding="utf-8"?>
<!-- Generator: Adobe Illustrator 22.0.0, SVG Export Plug-In . SVG Version: 6.00 Build 0)  -->
<svg version="1.1" id="Layer_1" xmlns="http://www.w3.org/2000/svg" xmlns:xlink="http://www.w3.org/1999/xlink" x="0px" y="0px"
	 viewBox="0 0 64 64" style="enable-background:new 0 0 64 64;" xml:space="preserve">
<style type="text/css">
	.st0{fill:#999999;}
</style>
<path class="st0" d="M53.7,47.9c0,0.8-0.5,1.3-1.2,1.3c-0.8,0-1.2-0.6-1.2-1.3s0.5-1.3,1.2-1.3C53.1,46.6,53.7,47.2,53.7,47.9z
	 M19.1,46.6c-0.8,0-1.2,0.6-1.2,1.3s0.5,1.3,1.2,1.3s1.2-0.5,1.2-1.3C20.3,47.2,19.8,46.6,19.1,46.6z M32.2,46.6c-0.6,0-1,0.4-1.1,1
	h2.1C33.1,46.9,32.8,46.6,32.2,46.6z M44.2,46.6c-0.8,0-1.2,0.6-1.2,1.3s0.5,1.3,1.2,1.3s1.2-0.5,1.2-1.3
	C45.4,47.2,44.9,46.6,44.2,46.6z M55.9,49.5L55.9,49.5v0.2c0,0,0,0.1-0.1,0.1l-0.1,0.1h-0.1h-0.1c0,0-0.1,0-0.1-0.1l-0.1-0.1
	c0-0.1,0-0.1,0-0.1c0-0.1,0-0.1,0-0.1c0-0.1,0-0.1,0.1-0.1c0,0,0.1,0,0.1-0.1c0.1,0,0.1,0,0.1,0c0.1,0,0.1,0,0.1,0
	C55.8,49.3,55.8,49.3,55.9,49.5C55.8,49.5,55.9,49.5,55.9,49.5z M55.7,49.7C55.7,49.7,55.7,49.6,55.7,49.7
	C55.8,49.6,55.8,49.6,55.7,49.7l0.1-0.2h-0.1h-0.2v0.4h0.1v-0.2L55.7,49.7L55.7,49.7L55.7,49.7L55.7,49.7L55.7,49.7z M64,11.3v39.1
	c0,2.9-2.4,5.3-5.3,5.3H5.3c-2.9,0-5.3-2.4-5.3-5.3V11.3C0,8.4,2.4,6,5.3,6h53.3C61.6,6,64,8.4,64,11.3z M7.1,26.8
	c0,8.5,6.9,15.4,15.4,15.4c3,0,6-0.9,8.5-2.6c-8.1-6.6-8-19,0-25.6c-2.5-1.7-5.5-2.6-8.5-2.6C14,11.5,7.1,18.4,7.1,26.8z M32,38.9
	c7.8-6.1,7.8-18,0-24.2C24.2,20.9,24.2,32.8,32,38.9z M16.2,47.4c0-1-0.6-1.6-1.6-1.6c-0.5,0-1.1,0.2-1.4,0.7
	c-0.3-0.5-0.7-0.7-1.4-0.7c-0.4,0-0.8,0.2-1.2,0.6v-0.5H9.7V50h0.9c0-2.1-0.3-3.4,1-3.4c1.1,0,0.9,1.1,0.9,3.4h0.9
	c0-2-0.3-3.4,1-3.4c1.1,0,0.9,1.1,0.9,3.4h0.9L16.2,47.4L16.2,47.4z M21.2,45.9h-0.9v0.5C20,46,19.6,45.8,19,45.8
	c-1.1,0-2,0.9-2,2.1c0,1.2,0.9,2.1,2,2.1c0.6,0,1-0.2,1.3-0.6V50h0.9C21.2,50,21.2,45.9,21.2,45.9z M25.7,48.7
	c0-1.7-2.5-0.9-2.5-1.7c0-0.6,1.3-0.5,2.1-0.1l0.4-0.7c-1-0.7-3.4-0.7-3.4,0.9c0,1.6,2.5,0.9,2.5,1.7c0,0.7-1.5,0.6-2.3,0.1
	l-0.4,0.7C23.3,50.4,25.7,50.2,25.7,48.7L25.7,48.7z M29.6,49.8L29.4,49C29,49.2,28,49.5,28,48.5v-1.8h1.5v-0.8H28v-1.2h-0.9v1.2
	h-0.8v0.8h0.8v1.9C27.1,50.5,29,50.2,29.6,49.8L29.6,49.8z M31.1,48.3h3.1c0-1.8-0.8-2.5-1.9-2.5c-1.2,0-2,0.9-2,2.1
	c0,2.3,2.5,2.7,3.8,1.6l-0.4-0.7C32.7,49.5,31.3,49.5,31.1,48.3z M37.7,45.9c-0.5-0.2-1.3-0.2-1.7,0.5v-0.5h-0.9V50H36v-2.3
	c0-1.3,1.1-1.1,1.4-0.9L37.7,45.9L37.7,45.9z M38.8,47.9c0-1.3,1.3-1.7,2.3-0.9l0.4-0.7c-1.3-1-3.6-0.5-3.6,1.7s2.5,2.6,3.6,1.7
	L41.1,49C40.1,49.6,38.8,49.2,38.8,47.9z M46.2,45.9h-0.9v0.5c-0.9-1.2-3.3-0.5-3.3,1.5c0,2.1,2.5,2.7,3.3,1.5V50h0.9V45.9z
	 M50,45.9c-0.3-0.1-1.2-0.3-1.7,0.5v-0.5h-0.9V50h0.9v-2.3c0-1.2,1-1.1,1.4-0.9L50,45.9L50,45.9z M54.5,44.2h-0.9v2.1
	c-0.9-1.2-3.3-0.6-3.3,1.5c0,2.2,2.5,2.7,3.3,1.5V50h0.9V44.2L54.5,44.2z M55.3,35.9v0.5h0.1L55.3,35.9h0.3v-0.1h-0.5v0.1H55.3
	L55.3,35.9z M56,49.6c0-0.1,0-0.1,0-0.2l-0.1-0.1l-0.1-0.1c-0.1,0-0.1,0-0.2,0c0,0-0.1,0-0.2,0c-0.1,0-0.1,0.1-0.1,0.1
	c-0.1,0-0.1,0.1-0.1,0.1c0,0.1,0,0.1,0,0.2c0,0,0,0.1,0,0.2c0,0,0,0.1,0.1,0.1l0.1,0.1c0.1,0,0.1,0,0.2,0c0.1,0,0.1,0,0.2,0l0.1-0.1
	l0.1-0.1C56,49.7,56,49.7,56,49.6z M56.4,35.8h-0.2L56,36.2l-0.2-0.4h-0.2v0.6h0.1v-0.5l0.2,0.4H56l0.2-0.4v0.5h0.1v-0.6H56.4z
	 M56.9,26.8c0-8.5-6.9-15.4-15.4-15.4c-3,0-6,0.9-8.5,2.6c8,6.6,8.1,19.1,0,25.6c2.5,1.7,5.5,2.6,8.5,2.6
	C50,42.2,56.9,35.3,56.9,26.8z"/>
</svg>
