<?xml version="1.0" encoding="utf-8"?>
<!-- Generator: Adobe Illustrator 22.0.0, SVG Export Plug-In . SVG Version: 6.00 Build 0)  -->
<svg version="1.1" id="Layer_1" xmlns="http://www.w3.org/2000/svg" xmlns:xlink="http://www.w3.org/1999/xlink" x="0px" y="0px"
	 viewBox="0 0 64 64" style="enable-background:new 0 0 64 64;" xml:space="preserve">
<style type="text/css">
	.st0{fill:#999999;}
</style>
<path class="st0" d="M0,38.3c0.2-0.4,0.5-0.5,1-0.3c1.1,0.6,2.2,1.2,3.3,1.7c4.2,2.1,8.7,3.7,13.3,4.8c2.2,0.5,4.4,0.9,6.6,1.2
	c3.3,0.4,6.6,0.6,9.9,0.5c1.8,0,3.6-0.2,5.5-0.4c5.9-0.7,11.6-2.2,17.1-4.5c0.3-0.1,0.6-0.2,1-0.1c0.7,0.2,0.9,0.9,0.4,1.5
	c-0.3,0.3-0.6,0.5-1,0.8c-3.2,2.2-6.7,3.8-10.4,5c-2.6,0.8-5.2,1.4-7.9,1.8c-1.8,0.3-3.7,0.5-5.6,0.5c-0.1,0-0.2,0-0.3,0h-2.2
	c-0.1,0-0.2,0-0.3,0c-0.4,0-0.8,0-1.1,0c-1.8-0.1-3.5-0.3-5.3-0.6c-2.9-0.5-5.7-1.2-8.4-2.2C10,46,4.8,42.9,0.4,38.9
	c-0.2-0.2-0.3-0.4-0.5-0.6L0,38.3z M16.5,11L16,11.1c-1.4,0.2-2.8,0.7-4,1.6c-0.3,0.2-0.5,0.4-0.7,0.6v-0.1c0-0.3-0.1-0.6-0.1-0.9
	c-0.1-0.5-0.3-0.7-0.8-0.7H9.2c-0.7,0-0.9,0.1-0.9,0.9v21.9c0,0.1,0,0.2,0,0.3c0,0.3,0.2,0.5,0.5,0.5c0.7,0,1.5,0,2.2,0
	c0.3,0,0.5-0.2,0.5-0.5c0-0.1,0-0.2,0-0.3v-7.6c0.1,0.1,0.2,0.1,0.2,0.2c1.9,1.6,4,2.1,6.4,1.6c2.1-0.4,3.6-1.7,4.6-3.7
	c0.7-1.5,1-3,1.1-4.6c0.1-1.8-0.1-3.5-0.8-5.2c-0.9-2.1-2.4-3.4-4.6-3.9c-0.3-0.1-0.7-0.1-1-0.2C17.1,11,16.8,11,16.5,11z
	 M11.6,15.4c0-0.1,0.1-0.3,0.2-0.3c1.4-1,3-1.5,4.8-1.4c1.6,0.1,2.8,0.9,3.5,2.7c0.4,1.1,0.5,2.3,0.5,3.5c0,1.1-0.1,2.2-0.4,3.2
	c-0.7,2.2-2.3,3.1-4.5,3c-1.5-0.1-2.7-0.6-3.9-1.5c-0.1-0.1-0.2-0.2-0.2-0.3c0-1.5,0-2.9,0-4.4S11.6,16.9,11.6,15.4L11.6,15.4z
	 M33.1,11c-0.1,0-0.2,0-0.3,0c-1,0-2,0.2-3,0.4c-0.6,0.2-1.3,0.4-1.9,0.6c-0.4,0.1-0.6,0.4-0.6,0.8c0,0.3,0,0.7,0,1
	c0,0.5,0.2,0.6,0.7,0.5c0.8-0.2,1.6-0.4,2.5-0.6c1.3-0.2,2.6-0.3,3.9-0.1c0.7,0.1,1.3,0.3,1.8,0.9c0.4,0.5,0.5,1.1,0.6,1.7
	c0,0.9,0,1.7,0,2.6v0.1c-0.1,0-0.1,0-0.1,0c-1.1-0.3-2.2-0.4-3.4-0.5s-2.4,0-3.5,0.4c-1.4,0.5-2.4,1.3-3.1,2.6
	c-0.5,1-0.6,2.1-0.4,3.2c0.2,1.5,0.9,2.6,2.2,3.3c1.2,0.7,2.6,0.8,4,0.6c1.6-0.2,3-0.9,4.2-1.9c0.1,0,0.1-0.1,0.2-0.1
	c0.1,0.4,0.1,0.8,0.2,1.2c0.1,0.3,0.3,0.5,0.6,0.5c0.6,0,1.1,0,1.7,0c0.3,0,0.5-0.2,0.5-0.5c0-0.1,0-0.2,0-0.3v-11
	c0-0.5,0-0.9-0.1-1.4c-0.2-1.4-0.8-2.5-2-3.2c-0.7-0.4-1.5-0.6-2.3-0.7C35.1,11,34.7,11,34.4,11C34,11,33.5,11,33.1,11L33.1,11z
	 M36.8,24.4c0,0.1-0.1,0.2-0.2,0.3c-1.2,0.8-2.5,1.4-3.9,1.6c-0.6,0.1-1.2,0-1.8-0.2c-0.6-0.2-1.1-0.7-1.3-1.4c-0.2-0.7-0.2-1.4,0-2
	c0.3-0.9,0.9-1.4,1.7-1.6c0.8-0.3,1.7-0.3,2.6-0.2c0.9,0.1,1.7,0.2,2.6,0.4c0.2,0,0.2,0.1,0.2,0.3c0,0.5,0,1,0,1.5
	C36.8,23.4,36.8,23.9,36.8,24.4z M64,37.9c-0.1-0.5-0.5-0.7-1-0.9c-0.7-0.2-1.5-0.4-2.2-0.4c-1.4-0.1-2.8-0.1-4.1,0.2
	c-1.5,0.3-2.9,0.8-4.2,1.6c-0.2,0.1-0.3,0.2-0.4,0.4C52,38.9,52,39.1,52,39.2c0,0.2,0.2,0.2,0.4,0.2c0.1,0,0.2,0,0.2,0
	c0.8-0.1,1.6-0.2,2.4-0.3c1.2-0.1,2.4-0.2,3.6-0.1c0.5,0,1,0.1,1.5,0.3c0.5,0.1,0.8,0.5,0.8,1.1c0,0.8-0.1,1.6-0.4,2.4
	c-0.4,1.6-1,3.2-1.7,4.7c0,0.1-0.1,0.2-0.1,0.3c-0.1,0.3,0.1,0.5,0.4,0.4c0.2,0,0.4-0.1,0.5-0.3c0.5-0.4,0.9-0.9,1.3-1.4
	c1.3-1.7,2.1-3.7,2.6-5.8c0.1-0.4,0.1-0.8,0.2-1.1L64,37.9L64,37.9z M50.2,25c-1.4-3.7-2.7-7.5-4.1-11.2c-0.2-0.6-0.4-1.2-0.7-1.8
	c-0.1-0.3-0.3-0.5-0.7-0.5c-0.8,0-1.6,0-2.4,0c-0.3,0-0.4,0.2-0.3,0.5c0.1,0.2,0.1,0.4,0.2,0.6c2.1,5.1,4.1,10.2,6.2,15.2
	c0.2,0.4,0.2,0.8,0,1.2c-0.3,0.8-0.6,1.6-1,2.3c-0.3,0.7-0.8,1.2-1.6,1.4c-0.5,0.1-1.1,0.2-1.6,0.1c-0.3,0-0.5-0.1-0.8-0.1
	c-0.4,0-0.5,0.1-0.5,0.5c0,0.3,0,0.7,0,1c0,0.6,0.2,0.8,0.8,0.9c0.6,0.1,1.2,0.2,1.8,0.2c1.8,0,3.2-0.7,4.1-2.2
	c0.4-0.6,0.7-1.3,1-1.9c2.5-6.3,4.9-12.5,7.4-18.8c0.1-0.2,0.1-0.4,0.2-0.6c0-0.3-0.1-0.5-0.4-0.5c-0.7,0-1.4,0-2.1,0
	c-0.4,0-0.7,0.2-0.8,0.5c-0.1,0.1-0.1,0.3-0.2,0.4L51.1,23c-0.3,0.8-0.5,1.5-0.8,2.3C50.2,25.2,50.2,25.1,50.2,25L50.2,25z"/>
</svg>
