<?xml version="1.0" encoding="utf-8"?>
<!-- Generator: Adobe Illustrator 22.0.0, SVG Export Plug-In . SVG Version: 6.00 Build 0)  -->
<svg version="1.1" id="Layer_1" xmlns="http://www.w3.org/2000/svg" xmlns:xlink="http://www.w3.org/1999/xlink" x="0px" y="0px"
	 viewBox="0 0 64 64" style="enable-background:new 0 0 64 64;" xml:space="preserve">
<style type="text/css">
	.st0{fill:#999999;}
</style>
<path class="st0" d="M57.8,25.2c0-0.9-0.6-1.3-1.7-1.3h-0.5v2.8h0.5C57.2,26.7,57.8,26.2,57.8,25.2L57.8,25.2z M58.7,7H5.3
	C2.4,7,0,9.4,0,12.3v39.1c0,2.9,2.4,5.3,5.3,5.3h53.3c2.9,0,5.3-2.4,5.3-5.3V12.3C64,9.4,61.6,7,58.7,7z M53.8,22.4
	c2.5,0,5.9-0.5,5.9,2.7c0,1.4-0.7,2.3-2.1,2.6l2.9,3.8h-2.2l-2.5-3.6h-0.2v3.6h-1.8L53.8,22.4z M47.6,22.4h5V24h-3.3v2h3.1v1.5h-3.1
	V30h3.3v1.5h-5V22.4z M39.9,22.4l2.4,6.1l2.5-6.1h1.9l-3.9,9.4h-1L38,22.4H39.9z M33.7,22.1c2.7,0,5,2.2,5,5c0,2.7-2.2,5-5,5
	c-2.7,0-5-2.2-5-5C28.8,24.3,31,22.1,33.7,22.1z M28.2,22.8v2.1C26,22.7,23,24.4,23,27c0,2.8,3.1,4.3,5.2,2.1v2.1
	c-3.3,1.6-7-0.6-7-4.2C21.2,23.5,24.9,21.1,28.2,22.8z M17.4,30.2c1.3,0,2.5-1.7-0.4-2.7c-1.7-0.6-2.2-1.3-2.2-2.5
	c0-2.6,3.4-3.5,5.5-1.6l-0.9,1.2c-1.2-1.3-2.8-0.7-2.8,0.3c0,0.5,0.3,0.8,1.4,1.1c2,0.7,2.6,1.4,2.6,2.8c0,3.3-4.3,4.2-6.3,1.3
	l1.1-1.1C15.9,29.7,16.6,30.2,17.4,30.2L17.4,30.2z M6.2,31.6H3.6v-9.1h2.6c2.9,0,4.9,1.9,4.9,4.6C11.1,29.1,9.6,31.6,6.2,31.6z
	 M13.7,31.6h-1.8v-9.1h1.8V31.6z M60.4,51.6c0,0.9-0.8,1.7-1.7,1.7H14.2c21.1-4,42.5-15.5,46.2-17.8V51.6z M8.2,24.7
	C7.7,24.2,6.9,24,5.8,24H5.3v6h0.5c1.1,0,1.9-0.2,2.4-0.7c0.6-0.6,1-1.4,1-2.3S8.9,25.3,8.2,24.7z"/>
</svg>
