<?xml version="1.0" encoding="utf-8"?>
<!-- Generator: Adobe Illustrator 22.0.0, SVG Export Plug-In . SVG Version: 6.00 Build 0)  -->
<svg version="1.1" id="Layer_1" xmlns="http://www.w3.org/2000/svg" xmlns:xlink="http://www.w3.org/1999/xlink" x="0px" y="0px"
	 viewBox="0 0 64 64" style="enable-background:new 0 0 64 64;" xml:space="preserve">
<path d="M36.8,59.2l-3.2,3.2c-1.3,1.3-3.5,1.3-4.8,0L1,34.6c-1.3-1.3-1.3-3.5,0-4.8L28.8,2c1.3-1.3,3.5-1.3,4.8,0l3.2,3.2
	c1.4,1.4,1.3,3.6-0.1,4.9L19.5,26.5h41.1c1.9,0,3.4,1.5,3.4,3.4v4.6c0,1.9-1.5,3.4-3.4,3.4H19.5l17.2,16.4
	C38.1,55.6,38.2,57.8,36.8,59.2L36.8,59.2z"/>
</svg>
