<?xml version="1.0" encoding="utf-8"?>
<!-- Generator: Adobe Illustrator 22.0.0, SVG Export Plug-In . SVG Version: 6.00 Build 0)  -->
<svg version="1.1" id="Layer_1" xmlns="http://www.w3.org/2000/svg" xmlns:xlink="http://www.w3.org/1999/xlink" x="0px" y="0px"
	 viewBox="0 0 64 64" style="enable-background:new 0 0 64 64;" xml:space="preserve">
<path d="M63.1,55.3L50.7,42.9c-0.6-0.6-1.3-0.9-2.1-0.9h-2c3.4-4.4,5.5-10,5.5-16C52,11.6,40.4,0,26,0C11.6,0,0,11.6,0,26
	c0,14.4,11.6,26,26,26c6,0,11.6-2,16-5.5v2c0,0.8,0.3,1.6,0.9,2.1l12.5,12.5c1.2,1.2,3.1,1.2,4.2,0l3.5-3.5
	C64.3,58.4,64.3,56.5,63.1,55.3z M26,44.5C15.8,44.5,7.5,36.2,7.5,26C7.5,15.8,15.8,7.5,26,7.5c10.2,0,18.5,8.2,18.5,18.5
	C44.5,36.2,36.2,44.5,26,44.5z"/>
</svg>
