<?xml version="1.0" encoding="utf-8"?>
<!-- Generator: Adobe Illustrator 22.0.0, SVG Export Plug-In . SVG Version: 6.00 Build 0)  -->
<svg version="1.1" id="Layer_1" xmlns="http://www.w3.org/2000/svg" xmlns:xlink="http://www.w3.org/1999/xlink" x="0px" y="0px"
	 viewBox="0 0 64 64" style="enable-background:new 0 0 64 64;" xml:space="preserve">
<style type="text/css">
	.st0{fill:#999999;}
</style>
<path class="st0" d="M57.4,18c0,0.6,0,1.1,0,1.7C57.5,37,44.3,57,20.1,57C12.7,57,5.8,54.8,0,51.1c1.1,0.1,2.1,0.2,3.2,0.2
	c6.1,0,11.8-2.1,16.3-5.6c-5.8-0.1-10.6-3.9-12.3-9.1c0.8,0.1,1.6,0.2,2.5,0.2c1.2,0,2.4-0.2,3.5-0.4c-6-1.2-10.5-6.5-10.5-12.9
	v-0.2c1.7,1,3.8,1.6,5.9,1.7C5,22.6,2.7,18.6,2.7,14c0-2.4,0.6-4.7,1.8-6.6c6.5,8,16.2,13.2,27,13.7c-0.2-1-0.3-2-0.3-3
	C31.2,10.9,37,5,44.3,5c3.8,0,7.2,1.6,9.6,4.1c3-0.6,5.8-1.7,8.3-3.2c-1,3-3,5.6-5.8,7.2c2.6-0.3,5.2-1,7.6-2
	C62.2,13.8,60,16.1,57.4,18L57.4,18z"/>
</svg>
