<?xml version="1.0" encoding="utf-8"?>
<!-- Generator: Adobe Illustrator 22.0.0, SVG Export Plug-In . SVG Version: 6.00 Build 0)  -->
<svg version="1.1" id="Layer_1" xmlns="http://www.w3.org/2000/svg" xmlns:xlink="http://www.w3.org/1999/xlink" x="0px" y="0px"
	 viewBox="0 0 64 64" style="enable-background:new 0 0 64 64;" xml:space="preserve">
<style type="text/css">
	.st0{fill:#999999;}
</style>
<path class="st0" d="M38.9,28.1c0.2,1,0.3,2,0.3,3.3C39.2,42.9,31.5,51,20,51C8.9,51,0,42.1,0,31s8.9-20,20-20c5.4,0,9.9,2,13.4,5.2
	L28,21.5c-1.5-1.4-4.1-3.1-8-3.1C13.2,18.4,7.6,24,7.6,31S13.2,43.6,20,43.6c7.9,0,10.9-5.7,11.4-8.6H20v-6.9H38.9L38.9,28.1z
	 M58.2,28.8V23h-5.8v5.8h-5.8v5.8h5.8v5.8h5.8v-5.8H64v-5.8H58.2L58.2,28.8z"/>
</svg>
