<?xml version="1.0" encoding="utf-8"?>
<!-- Generator: Adobe Illustrator 22.0.0, SVG Export Plug-In . SVG Version: 6.00 Build 0)  -->
<svg version="1.1" id="Layer_1" xmlns="http://www.w3.org/2000/svg" xmlns:xlink="http://www.w3.org/1999/xlink" x="0px" y="0px"
	 viewBox="0 0 64 64" style="enable-background:new 0 0 64 64;" xml:space="preserve">
<style type="text/css">
	.st0{fill:#999999;}
</style>
<path class="st0" d="M14.3,64H1.1V21.3h13.3V64H14.3z M7.7,15.4C3.4,15.4,0,11.9,0,7.7C0,3.4,3.4,0,7.7,0c4.2,0,7.7,3.4,7.7,7.7
	C15.4,11.9,11.9,15.4,7.7,15.4z M64,64H50.7V43.2c0-5-0.1-11.3-6.9-11.3c-6.9,0-8,5.4-8,11V64H22.6V21.3h12.7v5.8h0.2
	c1.8-3.4,6.1-6.9,12.6-6.9C61.5,20.2,64,29,64,40.5V64L64,64z"/>
</svg>
