<?xml version="1.0" encoding="utf-8"?>
<!-- Generator: Adobe Illustrator 22.0.0, SVG Export Plug-In . SVG Version: 6.00 Build 0)  -->
<svg version="1.1" id="Layer_1" xmlns="http://www.w3.org/2000/svg" xmlns:xlink="http://www.w3.org/1999/xlink" x="0px" y="0px"
	 viewBox="0 0 64 64" style="enable-background:new 0 0 64 64;" xml:space="preserve">
<style type="text/css">
	.st0{fill:#1A2A5B;}
</style>
<path class="st0" d="M60.7,22l-17.5-2.5L35.4,3.6c-1.4-2.8-5.5-2.9-6.9,0l-7.8,15.8L3.3,22c-3.1,0.5-4.4,4.3-2.1,6.5l12.6,12.3
	l-3,17.4c-0.5,3.1,2.8,5.5,5.6,4L32,54.1l15.6,8.2c2.8,1.5,6.1-0.9,5.6-4l-3-17.4l12.6-12.3C65.1,26.3,63.9,22.5,60.7,22L60.7,22z
	 M44,38.9l2.8,16.6L32,47.6l-14.9,7.8L20,38.9l-12-11.7l16.6-2.4L32,9.6l7.4,15.1l16.6,2.4L44,38.9L44,38.9z"/>
</svg>
