<?xml version="1.0" encoding="utf-8"?>
<!-- Generator: Adobe Illustrator 22.0.0, SVG Export Plug-In . SVG Version: 6.00 Build 0)  -->
<svg version="1.1" id="Layer_1" xmlns="http://www.w3.org/2000/svg" xmlns:xlink="http://www.w3.org/1999/xlink" x="0px" y="0px"
	 viewBox="0 0 64 64" style="enable-background:new 0 0 64 64;" xml:space="preserve">
<g>
	<g>
		<path d="M47.5,54.3v-5.4c-8.5-0.5-16.4-4.5-22-11c-2.6-3.1-3.3-4.8-4.6-6.6c-3.8-5.4-10-8.6-16.5-8.6H0V11.4h4.4
			c9.2,0,17.9,4,23.9,11c2.6,3.1,3.3,4.8,4.6,6.6c3.4,4.8,8.8,7.9,14.6,8.5v-5.3l16.5,11L47.5,54.3z"/>
	</g>
	<path d="M22.6,40.3c-2-2.3-3-4-3.8-5.3c-0.4-0.6-0.7-1.1-1-1.6c-0.1-0.2-0.3-0.4-0.4-0.6c-3.6,3.1-8.3,4.8-13,4.8H0v11.2h4.4
		c7.2,0,14.2-2.5,19.7-7C23.6,41.4,23.1,40.8,22.6,40.3z"/>
	<path d="M31.1,20c2,2.3,3,4,3.8,5.3c0.4,0.6,0.7,1.1,1,1.6c0.1,0.2,0.3,0.4,0.4,0.5c3.2-2.7,7.1-4.3,11.2-4.7l0,5.3L64,17L47.5,6
		v5.4c-6.6,0.4-12.8,2.8-17.9,6.9C30.1,18.9,30.6,19.4,31.1,20z"/>
</g>
</svg>
