<?xml version="1.0" encoding="utf-8"?>
<!-- Generator: Adobe Illustrator 22.0.0, SVG Export Plug-In . SVG Version: 6.00 Build 0)  -->
<svg version="1.1" id="Layer_1" xmlns="http://www.w3.org/2000/svg" xmlns:xlink="http://www.w3.org/1999/xlink" x="0px" y="0px"
	 viewBox="0 0 64 64" style="enable-background:new 0 0 64 64;" xml:space="preserve">
<path d="M62.4,41.2h-1.6V30.4c0-1.3-0.5-2.5-1.4-3.4l-10-10c-0.9-0.9-2.1-1.4-3.4-1.4h-4.4v-4.8c0-2.7-2.1-4.8-4.8-4.8H11.2
	c-2.7,0-4.8,2.1-4.8,4.8v4.8H0.8C0.4,15.6,0,16,0,16.4V18c0,0.4,0.4,0.8,0.8,0.8H28c0.4,0,0.8,0.4,0.8,0.8v1.6
	c0,0.4-0.4,0.8-0.8,0.8H4c-0.4,0-0.8,0.4-0.8,0.8v1.6c0,0.4,0.4,0.8,0.8,0.8h20.8c0.4,0,0.8,0.4,0.8,0.8v1.6c0,0.4-0.4,0.8-0.8,0.8
	h-24c-0.4,0-0.8,0.4-0.8,0.8v1.6c0,0.4,0.4,0.8,0.8,0.8h20.8c0.4,0,0.8,0.4,0.8,0.8V34c0,0.4-0.4,0.8-0.8,0.8H6.4v12.8
	c0,5.3,4.3,9.6,9.6,9.6s9.6-4.3,9.6-9.6h12.8c0,5.3,4.3,9.6,9.6,9.6s9.6-4.3,9.6-9.6h4.8c0.9,0,1.6-0.7,1.6-1.6v-3.2
	C64,41.9,63.3,41.2,62.4,41.2z M16,52.4c-2.7,0-4.8-2.1-4.8-4.8c0-2.6,2.1-4.8,4.8-4.8s4.8,2.2,4.8,4.8C20.8,50.3,18.7,52.4,16,52.4
	z M48,52.4c-2.7,0-4.8-2.1-4.8-4.8c0-2.6,2.1-4.8,4.8-4.8s4.8,2.2,4.8,4.8C52.8,50.3,50.7,52.4,48,52.4z M56,31.6H41.6V20.4H46
	l10,10V31.6z"/>
</svg>
