<?xml version="1.0" encoding="utf-8"?>
<!-- Generator: Adobe Illustrator 22.0.0, SVG Export Plug-In . SVG Version: 6.00 Build 0)  -->
<svg version="1.1" id="Layer_1" xmlns="http://www.w3.org/2000/svg" xmlns:xlink="http://www.w3.org/1999/xlink" x="0px" y="0px"
	 viewBox="0 0 64 64" style="enable-background:new 0 0 64 64;" xml:space="preserve">
<style type="text/css">
	.st0{fill:#053484;}
</style>
<g>
	<path class="st0" d="M34.2,43.4c0,0-8.1,0-11,0c-3,0.3-3.4,4-3.4,4.4c-0.5-0.1-13.8-6-14.2-6.3c-0.5-0.2-3.8-1.1-5.2,2.1
		c-1.3,3.2,0.9,4.7,1.2,4.9c0,0,9.9,5.6,14.4,8.1c4.6,2.6,8.3,5.4,14.6,5.1C37,61.4,47.5,57,47.5,57h2.2V39.1c0,0-0.6,0-4.4,0
		C41.4,39.3,34.2,43.4,34.2,43.4z"/>
	<path class="st0" d="M64,60.2c0,0,0-24.1,0-25.2c0-1.1-0.8-1.1-0.8-1.1s-10.4,0-11.4,0S50.8,35,50.8,35s0,23.9,0,25.1s1.2,1,1.2,1
		s10.1,0,11.1,0C64.1,61.1,64,60.2,64,60.2z"/>
	<path class="st0" d="M19.5,38.8c10.4,0,18.9-8.5,18.9-18.9C38.5,9.5,30,1,19.5,1S0.6,9.5,0.6,19.9C0.6,30.4,9.1,38.8,19.5,38.8z
		 M19.5,21.2c-2.8,0-5.1-2.1-5.1-4.8c0-2.2,1.7-4.1,3.9-4.6v-0.6c0-0.7,0.5-1.2,1.2-1.2c0.7,0,1.2,0.5,1.2,1.2v0.6
		c2.2,0.5,3.9,2.4,3.9,4.6c0,0.7-0.5,1.2-1.2,1.2c-0.7,0-1.2-0.5-1.2-1.2c0-1.3-1.2-2.3-2.7-2.3s-2.7,1-2.7,2.3
		c0,1.3,1.2,2.3,2.7,2.3c2.8,0,5.1,2.1,5.1,4.8c0,2.2-1.7,4.1-3.9,4.6v0.5c0,0.7-0.5,1.2-1.2,1.2c-0.7,0-1.2-0.5-1.2-1.2v-0.5
		c-2.2-0.5-3.9-2.4-3.9-4.6c0-0.7,0.5-1.2,1.2-1.2c0.7,0,1.2,0.5,1.2,1.2c0,1.3,1.2,2.3,2.7,2.3s2.7-1,2.7-2.3
		C22.2,22.2,21,21.2,19.5,21.2z"/>
</g>
</svg>
