<?xml version="1.0" encoding="utf-8"?>
<!-- Generator: Adobe Illustrator 22.0.0, SVG Export Plug-In . SVG Version: 6.00 Build 0)  -->
<svg version="1.1" id="Layer_1" xmlns="http://www.w3.org/2000/svg" xmlns:xlink="http://www.w3.org/1999/xlink" x="0px" y="0px"
	 viewBox="0 0 64 64" style="enable-background:new 0 0 64 64;" xml:space="preserve">
<path d="M7,58c0,3.3,2.7,6,6,6l0,0h36c3.3,0,6-2.7,6-6l0,0V16H7V58z M41,26c0-1.1,0.9-2,2-2s2,0.9,2,2v28c0,1.1-0.9,2-2,2
	s-2-0.9-2-2V26z M29,26c0-1.1,0.9-2,2-2s2,0.9,2,2v28c0,1.1-0.9,2-2,2s-2-0.9-2-2V26z M17,26c0-1.1,0.9-2,2-2c1.1,0,2,0.9,2,2v28
	c0,1.1-0.9,2-2,2c-1.1,0-2-0.9-2-2V26z M57,4H42l-1.2-2.3c-0.5-1-1.5-1.7-2.7-1.7H23.8c-1.1,0-2.2,0.6-2.7,1.7L20,4H5
	C3.9,4,3,4.9,3,6v4c0,1.1,0.9,2,2,2h52c1.1,0,2-0.9,2-2V6C59,4.9,58.1,4,57,4z"/>
</svg>
