<?xml version="1.0" encoding="utf-8"?>
<!-- Generator: Adobe Illustrator 22.0.0, SVG Export Plug-In . SVG Version: 6.00 Build 0)  -->
<svg version="1.1" id="Layer_1" xmlns="http://www.w3.org/2000/svg" xmlns:xlink="http://www.w3.org/1999/xlink" x="0px" y="0px"
	 viewBox="0 0 64 64" style="enable-background:new 0 0 64 64;" xml:space="preserve">
<path d="M59.1,45.4c3.1-3,4.9-6.8,4.9-10.9c0-8.9-8.5-16.2-19.6-17.5C40.9,10.5,32.7,6,23.1,6C10.3,6,0,14,0,23.8
	c0,4.1,1.8,7.9,4.9,10.9c-1.7,3.4-4.1,6.1-4.2,6.1c-0.7,0.7-0.9,1.8-0.5,2.8c0.4,0.9,1.3,1.6,2.4,1.6c5.9,0,10.7-2.2,13.9-4.3
	c1,0.2,2.1,0.4,3.2,0.5c3.5,6.4,11.7,10.9,21.3,10.9c2.3,0,4.5-0.3,6.6-0.8c3.2,2.1,8,4.3,13.9,4.3c1,0,1.9-0.6,2.4-1.6
	c0.4-0.9,0.2-2-0.5-2.8C63.3,51.4,60.8,48.8,59.1,45.4z M17.7,35.6l-2.2-0.5l-1.9,1.2c-1.6,1-3.2,1.8-4.8,2.4
	c0.3-0.5,0.6-1.1,0.9-1.6l1.7-3.5l-2.8-2.7c-1.5-1.5-3.3-3.9-3.3-7.1c0-6.7,8.1-12.4,17.8-12.4c9.6,0,17.8,5.7,17.8,12.4
	s-8.1,12.4-17.8,12.4C21.3,36.2,19.4,36,17.7,35.6z M55.4,41.6l-2.7,2.7l1.7,3.5c0.3,0.6,0.6,1.1,0.9,1.6C53.6,48.8,52,48,50.4,47
	l-1.9-1.2l-2.2,0.5c-1.8,0.4-3.6,0.6-5.4,0.6c-6,0-11.4-2.2-14.6-5.5c11.3-1.2,19.9-8.6,19.9-17.6c0-0.4,0-0.7-0.1-1.1
	c7.2,1.6,12.5,6.3,12.5,11.8C58.7,37.6,56.9,40.1,55.4,41.6z"/>
</svg>
