<?xml version="1.0" encoding="utf-8"?>
<!-- Generator: Adobe Illustrator 22.0.0, SVG Export Plug-In . SVG Version: 6.00 Build 0)  -->
<svg version="1.1" id="Layer_1" xmlns="http://www.w3.org/2000/svg" xmlns:xlink="http://www.w3.org/1999/xlink" x="0px" y="0px"
	 viewBox="0 0 64 64" style="enable-background:new 0 0 64 64;" xml:space="preserve">
<g>
	<path d="M46.1,27.9l-21-21C23.3,5,20,6.3,20,9v12H3c-1.7,0-3,1.3-3,3v12c0,1.7,1.3,3,3,3h17v12c0,2.7,3.3,4,5.1,2.1l21-21
		C47.3,31,47.3,29,46.1,27.9z"/>
	<path d="M52,5H41.5C40.7,5,40,5.7,40,6.5v5c0,0.8,0.7,1.5,1.5,1.5H52c2.2,0,4,1.8,4,4v24c0,2.2-1.8,4-4,4H41.5
		c-0.8,0-1.5,0.7-1.5,1.5v5c0,0.8,0.7,1.5,1.5,1.5H52c6.6,0,12-5.4,12-12V17C64,10.4,58.6,5,52,5z"/>
</g>
</svg>
