<?xml version="1.0" encoding="utf-8"?>
<!-- Generator: Adobe Illustrator 22.0.0, SVG Export Plug-In . SVG Version: 6.00 Build 0)  -->
<svg version="1.1" id="Layer_1" xmlns="http://www.w3.org/2000/svg" xmlns:xlink="http://www.w3.org/1999/xlink" x="0px" y="0px"
	 viewBox="0 0 64 64" style="enable-background:new 0 0 64 64;" xml:space="preserve">
<path d="M63.4,53.1L3.6,6.4C2.9,5.8,1.9,5.9,1.4,6.6l0,0l-1,1.2c-0.6,0.7-0.4,1.7,0.2,2.2c0,0,0,0,0,0l59.8,46.7
	c0.7,0.6,1.7,0.4,2.2-0.2l1-1.2C64.2,54.7,64.1,53.7,63.4,53.1C63.4,53.1,63.4,53.1,63.4,53.1z M29.7,20.6l13.5,10.5
	c-0.2-6-5.1-10.8-11.2-10.8C31.2,20.4,30.4,20.5,29.7,20.6z M34.3,42.6L20.8,32C21.1,38,26,42.8,32,42.8
	C32.8,42.8,33.6,42.7,34.3,42.6L34.3,42.6z M32,17.2c9.9,0,18.9,5.5,23.8,14.4c-1.2,2.2-2.7,4.2-4.4,6l3.8,2.9
	c2.1-2.2,3.9-4.8,5.3-7.5c0.5-0.9,0.5-2,0-2.9C55,19.6,44.3,12.4,32,12.4c-3.7,0-7.2,0.7-10.5,1.9l4.6,3.6
	C28.1,17.5,30,17.2,32,17.2z M32,46c-9.9,0-18.9-5.5-23.8-14.4c1.2-2.2,2.7-4.2,4.4-6l-3.8-2.9c-2.1,2.2-3.9,4.8-5.3,7.5
	c-0.5,0.9-0.5,2,0,2.9C9,43.6,19.7,50.8,32,50.8c3.7,0,7.2-0.7,10.5-1.9l-4.6-3.6C35.9,45.7,34,46,32,46z"/>
</svg>
