<svg viewBox="0 0 2000 2000" xmlns="http://www.w3.org/2000/svg"><g fill="#00918e"><path d="m1509 1490.9c-1.2.7-2.4 1.5-3.5 2.2 1.1-.7 2.3-1.4 3.5-2.2z"/><path d="m1512.8 1488.5c-1 .6-2 1.3-3 1.9 1-.6 2-1.2 3-1.9z"/><path d="m1548.1 1462.3c-1.1 1-2.3 2.1-3.4 3.1 1.1-1.1 2.2-2.1 3.4-3.1z"/><path d="m1536.6 1472c-.9.7-1.7 1.3-2.6 2 .9-.6 1.7-1.3 2.6-2z"/><path d="m1521.6 1482.8c-2.7 1.8-5.3 3.5-7.9 5.1 2.6-1.6 5.2-3.3 7.9-5.1z"/><path d="m1544.6 1465.4c-2.3 2.1-4.7 4-7.1 5.9 2.4-1.9 4.8-3.9 7.1-5.9z"/><path d="m1533.5 1474.4c-3.6 2.6-7.5 5.3-11.6 8.2 3.9-2.6 7.7-5.3 11.6-8.2z"/><path d="m1509 506.7c-88.6-49.5-703.9-415.8-703.9-415.8s-615.3 366.3-704 415.8-75.6 106.9-75.6 106.9 0 702.2 0 769.8c0 35.1 16.9 60.4 37.2 79.2 4.7 4.3 9.6 8.3 14.5 12 3.7 2.6 7.7 5.5 11.9 8.4 1.9 1.2-90.5 123.3-89 121.7 30.9-33.2 95.7-99.6 105.1-111.5 26.5-28.4 107.4-112.9 121.4-125.3 8.8-7.9 35.6-35.8 64.8-65.8 22-22.7 45.3-46.7 63.2-64.2 41.6-40.6 107.4-82.7 127-93.2 19.6-10.6 34.6-1.4 37.1 1 1 1 10.4 11 21.2 22.7 16.2 17.3 35.6 38.3 35.6 38.3.5 3.6.2 11.8-.9 16.5-4.3 17.8-18.5 37.9-27.2 54.2-11 20.7-67.3 82.9-90.5 107.3s-108.8 106-138.2 136.5c-13 13.5-37.8 37.3-62.2 59.9l548.9 314.5.1-.1 388.9-222.9h-389-174.4c-10.4 0-18.9-8.5-18.9-18.9v-143.4c0-10.4 8.5-18.9 18.9-18.9h175.1 571.9c10.4 0 18.9 8.5 18.9 18.9v46.3l53-30.5c.1 0 .2-.1.2-.1.4-.2.9-.5 1.3-.7 5.7-3.3 26.8-15.6 44.7-26.4.9-.5 1.8-1.1 2.7-1.7 1-.6 2-1.2 3-1.8.9-.6 1.8-1.1 2.7-1.7.1 0 .1-.1.2-.1 1.2-.7 2.3-1.4 3.5-2.2.3-.2.6-.3.8-.5 1-.6 2-1.2 3-1.9l.9-.6c2.6-1.6 5.2-3.3 7.9-5.1.1-.1.2-.2.3-.2 4.1-2.9 8-5.7 11.6-8.2.2-.1.3-.2.5-.3.9-.7 1.7-1.3 2.6-2 .3-.2.6-.5.9-.7 2.4-1.9 4.8-3.9 7.1-5.9 1.1-1 2.3-2 3.4-3.1 0 0 .1-.1.1-.1 20.2-18.8 37.1-44.2 37.1-79.4 0-67.8 0-769.5 0-769.5s13.3-57.6-75.4-107.2zm-323.1 388c39.7 19.6 55 42.2 62.9 59.3s10.4 31.2 9.2 44-3.7 31.2-26.9 55.6c-13.5 14.2-77.1 77.9-129.6 129.9-38 37.6-70.2 69.1-73.3 71.2-7.3 4.9-38.9 18.3-71.4 5.5s-64.9-55-70.4-75.8-9.8-50.1 7.9-69.1c3.5-3.7 13.9-14.2 28.2-28.5 58.6-58.4 183.8-181.7 183.8-181.7s39.9-30 79.6-10.4zm-331.2-253.3c13.4 30.6 30.6 55.6 79.4 115.5 48.9 59.9 131.4 105.7 138.7 109.4s12.2 5.5 9.2 7.9c-3.1 2.4-34.2 36.7-48.3 49.5s-130.8 128.3-144.8 143.6c-.3.3-.5.6-.8.8-13.6 14.8-23.1 23.5-26.7 18.1-6.6-16.1-15.1-31.4-24.7-45.9-9.5-14.4-20.1-28-30.9-40.7-26-30.4-53.6-55.5-71.5-74.2-33-34.2-102.1-64.2-102.1-64.2s113.8-114 173.6-174.2c19.7-19.8 33.5-33.7 35.4-35.9 8-8.5 13.5-9.7 13.5-9.7zm-393.6 120.4c-5.5-20.8-9.8-50.1 7.9-69.1 17.7-18.9 212.1-210.2 212.1-210.2s39.7-29.9 79.4-10.4c21.2 10.4 35.4 21.7 45.2 32.6 8.7 9.5 14 18.7 17.7 26.7 7.9 17.1 10.4 31.2 9.2 44s-3.7 31.2-26.9 55.6c-23.2 24.4-195.6 196.2-202.9 201.1s-38.9 18.3-71.4 5.5c-32.4-12.9-64.8-55-70.3-75.8zm137.3 416c-9 9-15.1 5.7-17.1 3.3-1.1-1.3-12.2-12.3-23.5-23.4-10.4-10.2-21.1-20.6-24.2-23.5-6.5-6.1 4.1-14.7 4.1-14.7s154-153.6 161.8-162.2c7.7-8.6 12.2-6.9 17.1-4.1 4.9 2.9 33.4 33.8 42 42.4s6.1 12.6 2.4 16.3c-1.8 1.8-37.4 38.2-74.9 76.4-40.5 41.4-83.1 84.8-87.7 89.5zm682.5 264.1c0 6.5-5.3 11.7-11.7 11.7h-463.5-64.6c-6.5 0-11.7-5.3-11.7-11.7v-106.9c0-6.5 5.3-11.7 11.7-11.7h64.6 463.4c6.5 0 11.7 5.3 11.7 11.7v106.9z"/><path d="m1537.5 1471.3c-.3.2-.6.5-.9.7.3-.2.6-.5.9-.7z"/><path d="m1509.8 1490.4c-.3.2-.6.3-.8.5.2-.1.5-.3.8-.5z"/><path d="m1521.8 1482.7s.1-.1.1-.1c-.1.1-.2.2-.3.2.1 0 .2-.1.2-.1z"/><path d="m1533.7 1474.2c.1-.1.2-.1.3-.2-.2.1-.3.2-.5.3.1 0 .2 0 .2-.1z"/><path d="m1513.7 1488c-.3.2-.6.4-.9.6.3-.3.6-.5.9-.6z"/><path d="m1548.2 1462.2s-.1.1-.1.1c0-.1 0-.1.1-.1z"/><path d="m1544.7 1465.3c0 .1-.1.1 0 0-.1.1 0 .1 0 0z"/></g><g fill="#cf8030"><path d="m1703.2 1222.9h70.4c0-169.2 0-713.2 0-713.2s13-57.4-75.6-106.9-716.8-402.8-716.8-402.8-1.3-2-62.9 34.6l5.5 3.2s615.2 366.3 703.8 415.8 75.6 106.9 75.6 106.9 0 447.9 0 662.4z"/><path d="m1703.2 777.1h70.4v713.2s13 57.4-75.6 106.9-716.9 402.8-716.9 402.8-1.3 2-62.9-34.6l5.5-3.2s615.2-366.3 703.8-415.8 75.6-106.9 75.6-106.9.1-447.9.1-662.4z"/></g></svg>